<mxfile host="app.diagrams.net" modified="2023-09-26T20:58:03.520Z" agent="Mozilla/5.0 (Windows NT 10.0; Win64; x64) AppleWebKit/537.36 (KHTML, like Gecko) Chrome/117.0.0.0 Safari/537.36 Edg/117.0.2045.36" etag="LpdmtGc1Ki-0Fqh0pqC6" version="21.8.2" type="github">
  <diagram id="C5RBs43oDa-KdzZeNtuy" name="Page-1">
    <mxGraphModel dx="1059" dy="616" grid="1" gridSize="10" guides="1" tooltips="1" connect="1" arrows="1" fold="1" page="1" pageScale="1" pageWidth="827" pageHeight="1169" math="0" shadow="0">
      <root>
        <mxCell id="WIyWlLk6GJQsqaUBKTNV-0" />
        <mxCell id="WIyWlLk6GJQsqaUBKTNV-1" parent="WIyWlLk6GJQsqaUBKTNV-0" />
        <mxCell id="WIyWlLk6GJQsqaUBKTNV-2" value="" style="rounded=0;html=1;jettySize=auto;orthogonalLoop=1;fontSize=11;endArrow=block;endFill=0;endSize=8;strokeWidth=1;shadow=0;labelBackgroundColor=none;edgeStyle=orthogonalEdgeStyle;exitX=0.526;exitY=1.048;exitDx=0;exitDy=0;exitPerimeter=0;entryX=0.5;entryY=0;entryDx=0;entryDy=0;" parent="WIyWlLk6GJQsqaUBKTNV-1" target="YcuCNspv7Y4rtTayc0Lt-7" edge="1">
          <mxGeometry relative="1" as="geometry">
            <mxPoint x="127.72000000000003" y="60.00000000000005" as="sourcePoint" />
            <mxPoint x="132.27555555555548" y="137.15999999999997" as="targetPoint" />
            <Array as="points">
              <mxPoint x="132" y="60" />
              <mxPoint x="132" y="140" />
              <mxPoint x="130" y="140" />
            </Array>
          </mxGeometry>
        </mxCell>
        <mxCell id="YcuCNspv7Y4rtTayc0Lt-0" value="&lt;h1&gt;Tools&lt;/h1&gt;&lt;div&gt;Node.js Express&lt;/div&gt;&lt;div&gt;Prisma&amp;nbsp;&lt;/div&gt;&lt;div&gt;Postgres&lt;/div&gt;&lt;div&gt;Dotenv&lt;/div&gt;&lt;div&gt;&lt;div&gt;@prisma/client&lt;/div&gt;&lt;div&gt;bcrypt&lt;/div&gt;&lt;div&gt;body-parser&lt;/div&gt;&lt;div&gt;deep-email-validator&lt;/div&gt;&lt;div&gt;dotenv&lt;/div&gt;&lt;div&gt;express-validator&lt;/div&gt;&lt;div&gt;jsonwebtoken&lt;/div&gt;&lt;div&gt;nodemailer&lt;/div&gt;&lt;/div&gt;&lt;div&gt;crypto&lt;/div&gt;&lt;div&gt;&lt;br&gt;&lt;/div&gt;" style="whiteSpace=wrap;html=1;aspect=fixed;align=left;" vertex="1" parent="WIyWlLk6GJQsqaUBKTNV-1">
          <mxGeometry x="660" y="30" width="240" height="240" as="geometry" />
        </mxCell>
        <mxCell id="YcuCNspv7Y4rtTayc0Lt-1" value="Text" style="text;html=1;align=center;verticalAlign=middle;resizable=0;points=[];autosize=1;strokeColor=none;fillColor=none;" vertex="1" parent="WIyWlLk6GJQsqaUBKTNV-1">
          <mxGeometry x="445" y="128" width="50" height="30" as="geometry" />
        </mxCell>
        <mxCell id="YcuCNspv7Y4rtTayc0Lt-2" value="&lt;div style=&quot;&quot;&gt;&lt;span style=&quot;background-color: initial;&quot;&gt;User enters email ,full name and password&lt;/span&gt;&lt;/div&gt;" style="shape=parallelogram;perimeter=parallelogramPerimeter;whiteSpace=wrap;html=1;fixedSize=1;align=center;" vertex="1" parent="WIyWlLk6GJQsqaUBKTNV-1">
          <mxGeometry x="30" width="210" height="60" as="geometry" />
        </mxCell>
        <mxCell id="YcuCNspv7Y4rtTayc0Lt-9" style="edgeStyle=orthogonalEdgeStyle;rounded=0;orthogonalLoop=1;jettySize=auto;html=1;" edge="1" parent="WIyWlLk6GJQsqaUBKTNV-1" source="YcuCNspv7Y4rtTayc0Lt-7">
          <mxGeometry relative="1" as="geometry">
            <mxPoint x="130.00000000000006" y="500" as="targetPoint" />
          </mxGeometry>
        </mxCell>
        <mxCell id="YcuCNspv7Y4rtTayc0Lt-10" value="Passes validation" style="edgeLabel;html=1;align=center;verticalAlign=middle;resizable=0;points=[];" vertex="1" connectable="0" parent="YcuCNspv7Y4rtTayc0Lt-9">
          <mxGeometry x="-0.6891" y="1" relative="1" as="geometry">
            <mxPoint as="offset" />
          </mxGeometry>
        </mxCell>
        <mxCell id="YcuCNspv7Y4rtTayc0Lt-12" value="" style="edgeStyle=orthogonalEdgeStyle;rounded=0;orthogonalLoop=1;jettySize=auto;html=1;" edge="1" parent="WIyWlLk6GJQsqaUBKTNV-1" source="YcuCNspv7Y4rtTayc0Lt-7" target="YcuCNspv7Y4rtTayc0Lt-11">
          <mxGeometry relative="1" as="geometry" />
        </mxCell>
        <mxCell id="YcuCNspv7Y4rtTayc0Lt-13" value="Fails&lt;br&gt;&amp;nbsp;validation" style="edgeLabel;html=1;align=center;verticalAlign=middle;resizable=0;points=[];" vertex="1" connectable="0" parent="YcuCNspv7Y4rtTayc0Lt-12">
          <mxGeometry x="-0.5608" y="3" relative="1" as="geometry">
            <mxPoint as="offset" />
          </mxGeometry>
        </mxCell>
        <mxCell id="YcuCNspv7Y4rtTayc0Lt-7" value="Server validates input" style="rhombus;whiteSpace=wrap;html=1;" vertex="1" parent="WIyWlLk6GJQsqaUBKTNV-1">
          <mxGeometry x="40" y="158" width="180" height="180" as="geometry" />
        </mxCell>
        <mxCell id="YcuCNspv7Y4rtTayc0Lt-11" value="Responds with a validation error message" style="rounded=1;whiteSpace=wrap;html=1;" vertex="1" parent="WIyWlLk6GJQsqaUBKTNV-1">
          <mxGeometry x="330" y="218" width="120" height="60" as="geometry" />
        </mxCell>
        <mxCell id="YcuCNspv7Y4rtTayc0Lt-14" value="Server saves password&amp;nbsp; securely" style="rounded=0;whiteSpace=wrap;html=1;" vertex="1" parent="WIyWlLk6GJQsqaUBKTNV-1">
          <mxGeometry x="70" y="500" width="120" height="60" as="geometry" />
        </mxCell>
        <mxCell id="YcuCNspv7Y4rtTayc0Lt-16" value="&lt;font style=&quot;font-size: 25px;&quot;&gt;USER LOGIN&lt;/font&gt;" style="rounded=0;whiteSpace=wrap;html=1;" vertex="1" parent="WIyWlLk6GJQsqaUBKTNV-1">
          <mxGeometry x="1220" y="10" width="410" height="60" as="geometry" />
        </mxCell>
        <mxCell id="YcuCNspv7Y4rtTayc0Lt-19" style="edgeStyle=orthogonalEdgeStyle;rounded=0;orthogonalLoop=1;jettySize=auto;html=1;exitX=0.5;exitY=1;exitDx=0;exitDy=0;" edge="1" parent="WIyWlLk6GJQsqaUBKTNV-1" source="YcuCNspv7Y4rtTayc0Lt-18" target="YcuCNspv7Y4rtTayc0Lt-20">
          <mxGeometry relative="1" as="geometry">
            <mxPoint x="1445" y="290" as="targetPoint" />
          </mxGeometry>
        </mxCell>
        <mxCell id="YcuCNspv7Y4rtTayc0Lt-18" value="User enters the email and password" style="rounded=1;whiteSpace=wrap;html=1;" vertex="1" parent="WIyWlLk6GJQsqaUBKTNV-1">
          <mxGeometry x="1330" y="140" width="230" height="60" as="geometry" />
        </mxCell>
        <mxCell id="YcuCNspv7Y4rtTayc0Lt-22" style="edgeStyle=orthogonalEdgeStyle;rounded=0;orthogonalLoop=1;jettySize=auto;html=1;exitX=1;exitY=0.5;exitDx=0;exitDy=0;" edge="1" parent="WIyWlLk6GJQsqaUBKTNV-1" source="YcuCNspv7Y4rtTayc0Lt-20" target="YcuCNspv7Y4rtTayc0Lt-36">
          <mxGeometry relative="1" as="geometry">
            <mxPoint x="1620" y="324.63157894736844" as="targetPoint" />
          </mxGeometry>
        </mxCell>
        <mxCell id="YcuCNspv7Y4rtTayc0Lt-26" value="INVALID&lt;br&gt;" style="edgeLabel;html=1;align=center;verticalAlign=middle;resizable=0;points=[];" vertex="1" connectable="0" parent="YcuCNspv7Y4rtTayc0Lt-22">
          <mxGeometry x="-0.3508" relative="1" as="geometry">
            <mxPoint as="offset" />
          </mxGeometry>
        </mxCell>
        <mxCell id="YcuCNspv7Y4rtTayc0Lt-24" value="" style="edgeStyle=orthogonalEdgeStyle;rounded=0;orthogonalLoop=1;jettySize=auto;html=1;" edge="1" parent="WIyWlLk6GJQsqaUBKTNV-1" source="YcuCNspv7Y4rtTayc0Lt-20" target="YcuCNspv7Y4rtTayc0Lt-29">
          <mxGeometry relative="1" as="geometry">
            <mxPoint x="1460" y="560" as="targetPoint" />
            <Array as="points">
              <mxPoint x="1460" y="478" />
              <mxPoint x="1461" y="478" />
            </Array>
          </mxGeometry>
        </mxCell>
        <mxCell id="YcuCNspv7Y4rtTayc0Lt-25" value="VALID" style="edgeLabel;html=1;align=center;verticalAlign=middle;resizable=0;points=[];" vertex="1" connectable="0" parent="YcuCNspv7Y4rtTayc0Lt-24">
          <mxGeometry x="-0.203" y="1" relative="1" as="geometry">
            <mxPoint as="offset" />
          </mxGeometry>
        </mxCell>
        <mxCell id="YcuCNspv7Y4rtTayc0Lt-20" value="&lt;h5&gt;system validates email and password&lt;/h5&gt;" style="rhombus;whiteSpace=wrap;html=1;" vertex="1" parent="WIyWlLk6GJQsqaUBKTNV-1">
          <mxGeometry x="1380" y="240" width="160" height="170" as="geometry" />
        </mxCell>
        <mxCell id="YcuCNspv7Y4rtTayc0Lt-31" value="" style="edgeStyle=orthogonalEdgeStyle;rounded=0;orthogonalLoop=1;jettySize=auto;html=1;" edge="1" parent="WIyWlLk6GJQsqaUBKTNV-1" source="YcuCNspv7Y4rtTayc0Lt-29" target="YcuCNspv7Y4rtTayc0Lt-30">
          <mxGeometry relative="1" as="geometry" />
        </mxCell>
        <mxCell id="YcuCNspv7Y4rtTayc0Lt-32" value="FOUND&lt;br&gt;" style="edgeLabel;html=1;align=center;verticalAlign=middle;resizable=0;points=[];" vertex="1" connectable="0" parent="YcuCNspv7Y4rtTayc0Lt-31">
          <mxGeometry x="-0.35" y="-2" relative="1" as="geometry">
            <mxPoint as="offset" />
          </mxGeometry>
        </mxCell>
        <mxCell id="YcuCNspv7Y4rtTayc0Lt-34" value="" style="edgeStyle=orthogonalEdgeStyle;rounded=0;orthogonalLoop=1;jettySize=auto;html=1;" edge="1" parent="WIyWlLk6GJQsqaUBKTNV-1" source="YcuCNspv7Y4rtTayc0Lt-29" target="YcuCNspv7Y4rtTayc0Lt-33">
          <mxGeometry relative="1" as="geometry" />
        </mxCell>
        <mxCell id="YcuCNspv7Y4rtTayc0Lt-35" value="NOT FOUND" style="edgeLabel;html=1;align=center;verticalAlign=middle;resizable=0;points=[];" vertex="1" connectable="0" parent="YcuCNspv7Y4rtTayc0Lt-34">
          <mxGeometry x="0.0364" y="1" relative="1" as="geometry">
            <mxPoint as="offset" />
          </mxGeometry>
        </mxCell>
        <mxCell id="YcuCNspv7Y4rtTayc0Lt-29" value="Server&amp;nbsp; quries for email" style="rhombus;whiteSpace=wrap;html=1;" vertex="1" parent="WIyWlLk6GJQsqaUBKTNV-1">
          <mxGeometry x="1370" y="520" width="180" height="170" as="geometry" />
        </mxCell>
        <mxCell id="YcuCNspv7Y4rtTayc0Lt-30" value="Server&amp;nbsp; quries for email" style="rhombus;whiteSpace=wrap;html=1;" vertex="1" parent="WIyWlLk6GJQsqaUBKTNV-1">
          <mxGeometry x="1370" y="770" width="180" height="170" as="geometry" />
        </mxCell>
        <mxCell id="YcuCNspv7Y4rtTayc0Lt-33" value="" style="whiteSpace=wrap;html=1;" vertex="1" parent="WIyWlLk6GJQsqaUBKTNV-1">
          <mxGeometry x="1660" y="575" width="120" height="60" as="geometry" />
        </mxCell>
        <mxCell id="YcuCNspv7Y4rtTayc0Lt-36" value="Error Response&amp;nbsp;&amp;nbsp;" style="rounded=1;whiteSpace=wrap;html=1;" vertex="1" parent="WIyWlLk6GJQsqaUBKTNV-1">
          <mxGeometry x="1640" y="295.00157894736844" width="120" height="60" as="geometry" />
        </mxCell>
      </root>
    </mxGraphModel>
  </diagram>
</mxfile>
